# xmcd
#
# Track frame offsets:
#	150
#	9317
#	27607
#	43168
#	61767
#	81004
#	96775
#	113911
#	130622
#	148266
#	164426
#	182999
#	199780
#	215941
#
# Disc length: 3054 seconds
#
# Revision: 27
# Processed by: cddbd v1.5.2PL0 Copyright (c) Steve Scherf et al.
# Submitted via: dBpowerAMP V4.0
#
DISCID=cb0bec0e
DTITLE=Nickelback - The Long Road
DYEAR=2003
DGENRE=Rock
TTITLE0=Flat on the Floor
TTITLE1=Do This Anymore
TTITLE2=Someday
TTITLE3=Believe It or Not
TTITLE4=Feelin' Way Too Damn Good
TTITLE5=Because of You
TTITLE6=Figured You Out
TTITLE7=Should've Listened
TTITLE8=Throw Yourself Away
TTITLE9=Another Hole in the Head
TTITLE10=See You at the Show
TTITLE11=Saturday Night's Alright (For Fighting) (Bonus Track)
TTITLE12=Yanking Out My... (Bonus Track)
TTITLE13=Learn The Hard Way (Bonus Track)
EXTD=
EXTT0=
EXTT1=
EXTT2=
EXTT3=
EXTT4=
EXTT5=
EXTT6=
EXTT7=
EXTT8=
EXTT9=
EXTT10=
EXTT11=
EXTT12=
EXTT13=
PLAYORDER=
